<svg width="229" height="39" viewBox="0 0 229 39" fill="none" xmlns="http://www.w3.org/2000/svg">
    <path d="M0 37.5134V11.624H5.38862L6.22997 15.165C8.34335 12.3823 11.1779 10.9893 14.7302 10.9893C16.5949 10.9893 18.2575 11.4135 19.7182 12.2587C21.1822 13.1055 22.284 14.268 23.0235 15.7462C24.2204 14.1962 25.611 13.017 27.1968 12.2052C28.7811 11.3951 30.5055 10.9893 32.3718 10.9893C34.2715 10.9893 35.9442 11.3951 37.3865 12.2052C38.8288 13.017 39.9639 14.1277 40.7919 15.5391C41.6199 16.9472 42.0339 18.5841 42.0339 20.4498V37.5134H35.2764V21.5054C35.2764 20.0623 34.809 18.8764 33.8742 17.9443C32.9394 17.009 31.7324 16.5413 30.2551 16.5413C28.5323 16.5413 27.1251 17.1226 26.035 18.2851C24.9432 19.4443 24.399 20.9575 24.399 22.8283V37.5134H17.6349V21.5054C17.6349 20.0623 17.1675 18.8764 16.2326 17.9443C15.3012 17.009 14.1159 16.5413 12.6736 16.5413C10.9458 16.5413 9.52858 17.1226 8.42014 18.2851C7.3117 19.4443 6.75748 20.9575 6.75748 22.8283V37.5134H0Z" fill="#009EE0"/>
    <path d="M46.9932 24.572C46.9932 21.8962 47.5557 19.5445 48.6825 17.5167C49.8077 15.4907 51.3635 13.8956 53.35 12.733C55.3399 11.5705 57.6385 10.9893 60.2477 10.9893C62.7083 10.9893 64.8718 11.5438 66.7381 12.6529C68.6027 13.7619 70.0634 15.2953 71.1184 17.2495C72.1768 19.2054 72.7076 21.4853 72.7076 24.091C72.7076 24.4434 72.6976 24.8059 72.6809 25.18C72.6626 25.5508 72.6359 25.9116 72.6008 26.2624H53.7506C53.9944 28.3035 54.8658 29.957 56.3615 31.2265C57.8572 32.4959 59.7152 33.1306 61.9371 33.1306C63.0622 33.1306 64.2491 32.9552 65.4961 32.6028C66.7464 32.247 68.0418 31.6991 69.3823 30.9592L71.4389 35.5558C69.6094 36.4377 67.8131 37.0908 66.0503 37.5134C64.2908 37.936 62.6382 38.1481 61.0891 38.1481C58.3063 38.1481 55.8573 37.5669 53.744 36.4043C51.6339 35.2418 49.9796 33.6417 48.7827 31.6006C47.5891 29.5562 46.9932 27.2144 46.9932 24.572ZM60.2477 16.0068C58.5199 16.0068 57.0576 16.573 55.8607 17.7038C54.6621 18.8313 53.9593 20.3278 53.7506 22.1935H66.2106C66.1037 20.3278 65.5044 18.8313 64.4144 17.7038C63.3226 16.573 61.9337 16.0068 60.2477 16.0068Z" fill="#009EE0"/>
    <path d="M77.6148 37.5135V11.624H84.3723V37.5135H77.6148ZM76.9805 4.228C76.9805 3.0304 77.3577 2.05329 78.1156 1.29497C78.8718 0.538335 79.8317 0.15918 80.9936 0.15918C82.1905 0.15918 83.167 0.538335 83.9249 1.29497C84.6811 2.05329 85.0601 3.0304 85.0601 4.228C85.0601 5.42727 84.6811 6.40438 83.9249 7.16102C83.167 7.91933 82.1905 8.29682 80.9936 8.29682C79.8317 8.29682 78.8718 7.91933 78.1156 7.16102C77.3577 6.40438 76.9805 5.42727 76.9805 4.228Z" fill="#009EE0"/>
    <path d="M91.29 37.5134V11.624H96.6787L97.52 15.3788C98.5083 13.9674 99.7736 12.8834 101.319 12.1251C102.869 11.3684 104.578 10.9893 106.448 10.9893C108.414 10.9893 110.155 11.4135 111.669 12.2587C113.187 13.1055 114.375 14.268 115.235 15.7462C116.098 17.2261 116.53 18.9331 116.53 20.8707V37.5134H109.773V21.9263C109.773 20.3412 109.26 19.0467 108.237 18.0446C107.217 17.0424 105.933 16.5413 104.384 16.5413C102.555 16.5413 101.041 17.1676 99.8437 18.4187C98.6451 19.6664 98.0475 21.2766 98.0475 23.2492V37.5134H91.29Z" fill="#009EE0"/>
    <path d="M122.339 33.8651C122.339 32.6357 122.743 31.6252 123.554 30.8318C124.364 30.0401 125.367 29.6426 126.566 29.6426C127.798 29.6426 128.809 30.0401 129.597 30.8318C130.388 31.6252 130.786 32.6357 130.786 33.8651C130.786 35.0643 130.388 36.0682 129.597 36.8783C128.809 37.6884 127.798 38.0942 126.566 38.0942C125.367 38.0942 124.364 37.6884 123.554 36.8783C122.743 36.0682 122.339 35.0643 122.339 33.8651Z" fill="white"/>
    <path d="M138.021 37.5134V2.00977H144.778V18.8596L160.463 2.00977H168.543L152.911 18.5991L169.284 37.5134H161.044L148.217 22.7213L144.778 26.3158V37.5134H138.021Z" fill="white"/>
    <path d="M172.975 37.5135V11.624H179.733V37.5135H172.975ZM172.341 4.228C172.341 3.0304 172.718 2.05329 173.476 1.29497C174.232 0.538335 175.192 0.15918 176.354 0.15918C177.551 0.15918 178.527 0.538335 179.285 1.29497C180.041 2.05329 180.42 3.0304 180.42 4.228C180.42 5.42727 180.041 6.40438 179.285 7.16102C178.527 7.91933 177.551 8.29682 176.354 8.29682C175.192 8.29682 174.232 7.91933 173.476 7.16102C172.718 6.40438 172.341 5.42727 172.341 4.228Z" fill="white"/>
    <path d="M185.121 24.572C185.121 21.8962 185.684 19.5445 186.81 17.5167C187.936 15.4907 189.491 13.8956 191.478 12.733C193.468 11.5705 195.766 10.9893 198.376 10.9893C200.836 10.9893 203 11.5438 204.866 12.6529C206.731 13.7619 208.191 15.2953 209.246 17.2495C210.305 19.2054 210.836 21.4853 210.836 24.091C210.836 24.4434 210.826 24.8059 210.809 25.18C210.79 25.5508 210.764 25.9116 210.729 26.2624H191.879C192.122 28.3035 192.994 29.957 194.489 31.2265C195.985 32.4959 197.843 33.1306 200.065 33.1306C201.19 33.1306 202.377 32.9552 203.624 32.6028C204.874 32.247 206.17 31.6991 207.51 30.9592L209.567 35.5558C207.737 36.4377 205.941 37.0908 204.178 37.5134C202.419 37.936 200.766 38.1481 199.217 38.1481C196.434 38.1481 193.985 37.5669 191.872 36.4043C189.762 35.2418 188.108 33.6417 186.911 31.6006C185.717 29.5562 185.121 27.2144 185.121 24.572ZM198.376 16.0068C196.648 16.0068 195.186 16.573 193.989 17.7038C192.79 18.8313 192.087 20.3278 191.879 22.1935H204.339C204.232 20.3278 203.632 18.8313 202.542 17.7038C201.451 16.573 200.062 16.0068 198.376 16.0068Z" fill="white"/>
    <path d="M222.5 0.319336V30.1173C222.5 30.929 222.747 31.5721 223.241 32.0481C223.735 32.5208 224.369 32.7563 225.144 32.7563C225.459 32.7563 225.82 32.7229 226.226 32.6561C226.63 32.5859 227.044 32.5141 227.468 32.4423L228.202 37.5667C226.443 37.9542 224.877 38.148 223.501 38.148C221.146 38.148 219.263 37.4899 217.852 36.1704C216.445 34.8475 215.742 33.0603 215.742 30.8054V0.319336H222.5Z" fill="white"/>
    <path d="M76.7305 4.22249C76.7305 2.99315 77.1344 1.98263 77.9457 1.18924C78.7554 0.397529 79.7586 0 80.9572 0C82.1892 0 83.2008 0.397529 83.9887 1.18924C84.78 1.98263 85.1773 2.99315 85.1773 4.22249C85.1773 5.42175 84.78 6.42559 83.9887 7.23568C83.2008 8.04577 82.1892 8.45165 80.9572 8.45165C79.7586 8.45165 78.7554 8.04577 77.9457 7.23568C77.1344 6.42559 76.7305 5.42175 76.7305 4.22249Z" fill="#009EE0"/>
    <path d="M172.196 4.22249C172.196 2.99315 172.6 1.98263 173.412 1.18924C174.221 0.397529 175.224 0 176.423 0C177.655 0 178.667 0.397529 179.455 1.18924C180.246 1.98263 180.643 2.99315 180.643 4.22249C180.643 5.42175 180.246 6.42559 179.455 7.23568C178.667 8.04577 177.655 8.45165 176.423 8.45165C175.224 8.45165 174.221 8.04577 173.412 7.23568C172.6 6.42559 172.196 5.42175 172.196 4.22249Z" fill="white"/>
</svg>
